/* XPM */
static char * collect_xpm[] = {
"64 64 704 2",
"  	c #6FC0A0",
". 	c #70C0A0",
"+ 	c #72C1A2",
"@ 	c #77C3A5",
"# 	c #79C3A7",
"$ 	c #71C1A1",
"% 	c #75C2A4",
"& 	c #79C3A6",
"* 	c #78C3A6",
"= 	c #74C2A3",
"- 	c #70C0A1",
"; 	c #6DBF9E",
"> 	c #6ABE9A",
", 	c #68BD98",
"' 	c #69BD9A",
") 	c #76C2A5",
"! 	c #81C6AB",
"~ 	c #86C7AF",
"{ 	c #82C6AC",
"] 	c #77C2A5",
"^ 	c #76C2A4",
"/ 	c #73C1A3",
"( 	c #7DC4A9",
"_ 	c #86C7AE",
": 	c #85C7AE",
"< 	c #7BC4A7",
"[ 	c #6EC09F",
"} 	c #6BBE9B",
"| 	c #62BB95",
"1 	c #5CB991",
"2 	c #60BA94",
"3 	c #6ABD9A",
"4 	c #6EBF9F",
"5 	c #87C7AF",
"6 	c #8EC9B3",
"7 	c #88C8AF",
"8 	c #6CBE9D",
"9 	c #69BE9B",
"0 	c #6ABE9C",
"a 	c #88C8B0",
"b 	c #8DC9B3",
"c 	c #74C2A4",
"d 	c #8DC9B2",
"e 	c #8CC9B2",
"f 	c #7EC5AA",
"g 	c #5CB992",
"h 	c #53B78D",
"i 	c #59B890",
"j 	c #6DBF9D",
"k 	c #69BE9C",
"l 	c #83C6AC",
"m 	c #83C6AD",
"n 	c #6BBE9C",
"o 	c #62BA95",
"p 	c #5AB790",
"q 	c #5DB892",
"r 	c #67BC99",
"s 	c #84C6AD",
"t 	c #7EC5A9",
"u 	c #87C8AF",
"v 	c #7CC4A8",
"w 	c #6ABE9B",
"x 	c #5AB890",
"y 	c #5EBA93",
"z 	c #69BD99",
"A 	c #6ABD9B",
"B 	c #5BB790",
"C 	c #66BC99",
"D 	c #54B48C",
"E 	c #44AF81",
"F 	c #49B084",
"G 	c #5EB993",
"H 	c #6BBE9D",
"I 	c #68BD99",
"J 	c #65BB98",
"K 	c #53B48B",
"L 	c #45AF81",
"M 	c #45AF82",
"N 	c #71C0A1",
"O 	c #65BC98",
"P 	c #52B48A",
"Q 	c #41AE80",
"R 	c #47B083",
"S 	c #6CBF9D",
"T 	c #51B38A",
"U 	c #42AE80",
"V 	c #5EB893",
"W 	c #55B58C",
"X 	c #58B68E",
"Y 	c #66BC98",
"Z 	c #5FBA93",
"` 	c #6EC0A0",
" .	c #69BD9B",
"..	c #5EB892",
"+.	c #68BD9A",
"@.	c #61BA94",
"#.	c #54B78E",
"$.	c #56B78F",
"%.	c #64BB96",
"&.	c #71C1A2",
"*.	c #6ABD9C",
"=.	c #6CBE9C",
"-.	c #63BB96",
";.	c #5AB891",
">.	c #7BC4A8",
",.	c #73C1A2",
"'.	c #7AC3A7",
").	c #67BC98",
"!.	c #8AC8B1",
"~.	c #80C5AA",
"{.	c #7DC5A9",
"].	c #8BC9B1",
"^.	c #81C5AB",
"/.	c #6DBF9F",
"(.	c #59B68F",
"_.	c #67BC9A",
":.	c #80C5AB",
"<.	c #7DC4A8",
"[.	c #6CBF9E",
"}.	c #4AB185",
"|.	c #40AD7F",
"1.	c #4DB287",
"2.	c #62BA96",
"3.	c #4EB287",
"4.	c #51B389",
"5.	c #63BB97",
"6.	c #60B994",
"7.	c #5CB891",
"8.	c #61BA95",
"9.	c #64BC97",
"0.	c #65BC97",
"a.	c #57B78F",
"b.	c #56B78E",
"c.	c #6CBF9C",
"d.	c #63BB95",
"e.	c #5BB991",
"f.	c #64BC96",
"g.	c #58B88F",
"h.	c #55B78E",
"i.	c #6EBF9E",
"j.	c #6FBFA0",
"k.	c #6FBF9F",
"l.	c #6FBE9F",
"m.	c #6DBD9D",
"n.	c #68BA98",
"o.	c #62B692",
"p.	c #67B796",
"q.	c #6CB99A",
"r.	c #6EBC9D",
"s.	c #6FC09F",
"t.	c #6FC1A1",
"u.	c #7CB99F",
"v.	c #7FA594",
"w.	c #5D907B",
"x.	c #568C76",
"y.	c #568B75",
"z.	c #548972",
"A.	c #52866F",
"B.	c #538771",
"C.	c #588874",
"D.	c #639B83",
"E.	c #6FBD9D",
"F.	c #73C2A2",
"G.	c #7FC5AA",
"H.	c #69B195",
"I.	c #7A9989",
"J.	c #887578",
"K.	c #6F3D47",
"L.	c #6B2E3C",
"M.	c #6B303E",
"N.	c #6C303E",
"O.	c #6C3241",
"P.	c #6C655E",
"Q.	c #69A187",
"R.	c #6EAB90",
"S.	c #70B899",
"T.	c #71C1A0",
"U.	c #73C0A1",
"V.	c #79BCA0",
"W.	c #5E8575",
"X.	c #5B494C",
"Y.	c #824453",
"Z.	c #A23B54",
"`.	c #A63854",
" +	c #A53753",
".+	c #A53752",
"++	c #A43752",
"@+	c #A43652",
"#+	c #A03752",
"$+	c #8D3F50",
"%+	c #5D5050",
"&+	c #585F5B",
"*+	c #68A188",
"=+	c #72C2A0",
"-+	c #70C1A1",
";+	c #64BB97",
">+	c #7DBEA4",
",+	c #98AAA1",
"'+	c #716F6E",
")+	c #5B353F",
"!+	c #8C4657",
"~+	c #B7526A",
"{+	c #B94763",
"]+	c #B53C5B",
"^+	c #B23756",
"/+	c #AF3553",
"(+	c #AE3552",
"_+	c #AA3551",
":+	c #94344B",
"<+	c #5C363E",
"[+	c #534548",
"}+	c #639980",
"|+	c #6FBE9D",
"1+	c #6EBE9E",
"2+	c #8BC9B2",
"3+	c #8AC9B1",
"4+	c #68BC9A",
"5+	c #5CB791",
"6+	c #4EB288",
"7+	c #70C2A1",
"8+	c #618575",
"9+	c #7E7272",
"0+	c #8D4F5B",
"a+	c #A15366",
"b+	c #C08D99",
"c+	c #DCBBC1",
"d+	c #CF8A99",
"e+	c #BE516C",
"f+	c #AF3351",
"g+	c #9E2A43",
"h+	c #99273F",
"i+	c #98263E",
"j+	c #97273E",
"k+	c #942A40",
"l+	c #903248",
"m+	c #8B3B4D",
"n+	c #6E6960",
"o+	c #5D8674",
"p+	c #689882",
"q+	c #58B18B",
"r+	c #78C3A5",
"s+	c #6FBF9E",
"t+	c #72C1A1",
"u+	c #74C1A3",
"v+	c #85C0A7",
"w+	c #80A192",
"x+	c #444141",
"y+	c #5F313D",
"z+	c #9A334D",
"A+	c #BF6076",
"B+	c #D8A6B2",
"C+	c #EEDEE1",
"D+	c #D8A2AF",
"E+	c #C05A73",
"F+	c #A92F4C",
"G+	c #902135",
"H+	c #861B2C",
"I+	c #85192A",
"J+	c #861A2C",
"K+	c #932339",
"L+	c #A8324E",
"M+	c #A63652",
"N+	c #763242",
"O+	c #4C4549",
"P+	c #62756A",
"Q+	c #4FAB82",
"R+	c #4FB68A",
"S+	c #67BD99",
"T+	c #5FB993",
"U+	c #6BB497",
"V+	c #8DA89B",
"W+	c #958A8C",
"X+	c #6B3E47",
"Y+	c #753040",
"Z+	c #992F47",
"`+	c #B55469",
" @	c #CC909D",
".@	c #E0C1C7",
"+@	c #CB8D9A",
"@@	c #B44E65",
"#@	c #A02A44",
"$@	c #8C1F32",
"%@	c #851A2B",
"&@	c #84192A",
"*@	c #8F2135",
"=@	c #A12C46",
"-@	c #A0304A",
";@	c #823143",
">@	c #6A4049",
",@	c #6B6761",
"'@	c #4F9976",
")@	c #56A783",
"!@	c #61B390",
"~@	c #58B890",
"{@	c #6DBC9C",
"]@	c #527F6D",
"^@	c #574F4F",
"/@	c #814955",
"(@	c #A33851",
"_@	c #9D2F48",
":@	c #912439",
"<@	c #952C3F",
"[@	c #AA475A",
"}@	c #BA5D70",
"|@	c #A84559",
"1@	c #932A3E",
"2@	c #881D2F",
"3@	c #851B2C",
"4@	c #831A2A",
"5@	c #83192A",
"6@	c #8A1E31",
"7@	c #8D2034",
"8@	c #9D2E47",
"9@	c #A03952",
"0@	c #86404F",
"a@	c #52524C",
"b@	c #6F7C76",
"c@	c #78A793",
"d@	c #6DBB9C",
"e@	c #497161",
"f@	c #432731",
"g@	c #7E3446",
"h@	c #AF3654",
"i@	c #A62E4A",
"j@	c #902136",
"k@	c #8C1E31",
"l@	c #9D2841",
"m@	c #AB304E",
"n@	c #962941",
"o@	c #812032",
"p@	c #771D2B",
"q@	c #781D2B",
"r@	c #781C2B",
"s@	c #7F1B2A",
"t@	c #85192B",
"u@	c #891C2F",
"v@	c #A32E49",
"w@	c #AA3754",
"x@	c #8B354A",
"y@	c #4F383D",
"z@	c #6D6E6D",
"A@	c #7AA492",
"B@	c #70C09F",
"C@	c #5DB992",
"D@	c #477160",
"E@	c #41262F",
"F@	c #7F3446",
"G@	c #B13655",
"H@	c #A72E4A",
"I@	c #871B2D",
"J@	c #96263D",
"K@	c #7C2636",
"L@	c #61262F",
"M@	c #56272C",
"N@	c #57272D",
"O@	c #5A262C",
"P@	c #721F2B",
"Q@	c #811A2A",
"R@	c #881C2F",
"S@	c #A52E49",
"T@	c #AC3754",
"U@	c #8C344A",
"V@	c #4D373B",
"W@	c #6B6B6B",
"X@	c #78A491",
"Y@	c #84C7AD",
"Z@	c #497261",
"`@	c #422932",
" #	c #7B3546",
".#	c #AA3653",
"+#	c #A22E48",
"@#	c #8E2135",
"##	c #831929",
"$#	c #831A2B",
"%#	c #7F1C2C",
"&#	c #632931",
"*#	c #453234",
"=#	c #363635",
"-#	c #353434",
";#	c #3B3132",
">#	c #65252D",
",#	c #7A1B2B",
"'#	c #841A2A",
")#	c #881C2E",
"!#	c #9F2D47",
"~#	c #873549",
"{#	c #4D393D",
"]#	c #6D6D6D",
"^#	c #7BA593",
"/#	c #7AC4A7",
"(#	c #507669",
"_#	c #493843",
":#	c #6D3A49",
"<#	c #90344B",
"[#	c #8D2C42",
"}#	c #872033",
"|#	c #7F1A2A",
"1#	c #761C2A",
"2#	c #6E2831",
"3#	c #6E5154",
"4#	c #797273",
"5#	c #737475",
"6#	c #545558",
"7#	c #4B484B",
"8#	c #5D333A",
"9#	c #6A232D",
"0#	c #741F2B",
"a#	c #801B2B",
"b#	c #841C2D",
"c#	c #8D2C41",
"d#	c #8C354B",
"e#	c #763849",
"f#	c #50454C",
"g#	c #76767A",
"h#	c #82AA9A",
"i#	c #78C4A5",
"j#	c #66BB98",
"k#	c #89C8B0",
"l#	c #46AF83",
"m#	c #50B389",
"n#	c #6FBC9E",
"o#	c #62827D",
"p#	c #565162",
"q#	c #504751",
"r#	c #4F3339",
"s#	c #5C2B32",
"t#	c #78202D",
"u#	c #5B232A",
"v#	c #4F3F40",
"w#	c #918E8E",
"x#	c #CECDCD",
"y#	c #CFCFD1",
"z#	c #8A8B92",
"A#	c #6D6F77",
"B#	c #514C52",
"C#	c #413132",
"D#	c #55292D",
"E#	c #761D2B",
"F#	c #7C1C2B",
"G#	c #652932",
"H#	c #4C353A",
"I#	c #4E414A",
"J#	c #5D5C6A",
"K#	c #898994",
"L#	c #8DB1A7",
"M#	c #7AC4A8",
"N#	c #48B084",
"O#	c #4CB186",
"P#	c #3FAD7E",
"Q#	c #4BB186",
"R#	c #72BDA0",
"S#	c #668581",
"T#	c #5B586A",
"U#	c #4E515B",
"V#	c #3F4143",
"W#	c #50363A",
"X#	c #6F2630",
"Y#	c #6E1F2B",
"Z#	c #4F252B",
"`#	c #434241",
" $	c #8F9091",
".$	c #D0D0D1",
"+$	c #D2D3D5",
"@$	c #909299",
"#$	c #73757F",
"$$	c #4E5157",
"%$	c #323333",
"&$	c #482B2D",
"*$	c #6D202B",
"=$	c #731F2D",
"-$	c #59343A",
";$	c #3D4346",
">$	c #494D54",
",$	c #616270",
"'$	c #8D8C99",
")$	c #8FB2A9",
"!$	c #67BD9A",
"~$	c #56B58D",
"{$	c #43AE81",
"]$	c #59B78F",
"^$	c #658480",
"/$	c #636275",
"($	c #757E8D",
"_$	c #8694A2",
":$	c #747782",
"<$	c #634951",
"[$	c #532428",
"}$	c #3F292B",
"|$	c #3B3A3A",
"1$	c #737576",
"2$	c #A4A5A8",
"3$	c #A9AAAF",
"4$	c #82848C",
"5$	c #71737C",
"6$	c #4F5156",
"7$	c #313232",
"8$	c #3B2B2C",
"9$	c #53282C",
"0$	c #5B3137",
"a$	c #787984",
"b$	c #8594A2",
"c$	c #798593",
"d$	c #686A7A",
"e$	c #8C8B97",
"f$	c #76C3A5",
"g$	c #7EC4A9",
"h$	c #74BEA1",
"i$	c #6F8A88",
"j$	c #767688",
"k$	c #929FB1",
"l$	c #ACC0D3",
"m$	c #8D9DAB",
"n$	c #5B646C",
"o$	c #353737",
"p$	c #393C3C",
"q$	c #3E4040",
"r$	c #55575B",
"s$	c #686A71",
"t$	c #70727B",
"u$	c #6F717A",
"v$	c #6B6D76",
"w$	c #53555A",
"x$	c #3A3C3C",
"y$	c #393C3D",
"z$	c #43484B",
"A$	c #8E9FAD",
"B$	c #ABBFD2",
"C$	c #9AA9BB",
"D$	c #797C8C",
"E$	c #95939F",
"F$	c #90B3A9",
"G$	c #78C0A4",
"H$	c #83A09A",
"I$	c #8F949F",
"J$	c #99A2B1",
"K$	c #9AABBD",
"L$	c #8796A5",
"M$	c #6E7983",
"N$	c #646D72",
"O$	c #6F7477",
"P$	c #777879",
"Q$	c #6A6C6E",
"R$	c #616368",
"S$	c #5F6168",
"T$	c #606268",
"U$	c #6D6E70",
"V$	c #757777",
"W$	c #727678",
"X$	c #656E74",
"Y$	c #656F77",
"Z$	c #9BABBD",
"`$	c #97A3B3",
" %	c #8C959E",
".%	c #A5ABB1",
"+%	c #97BCB0",
"@%	c #7ABCA3",
"#%	c #A7C0B9",
"$%	c #AFB1B9",
"%%	c #7A8090",
"&%	c #7F899A",
"*%	c #9BADBF",
"=%	c #B4C4D3",
"-%	c #CAD2DA",
";%	c #D8DADA",
">%	c #9B9B9B",
",%	c #595A5B",
"'%	c #3D3F41",
")%	c #3F4042",
"!%	c #4E5051",
"~%	c #AAAAAB",
"{%	c #D3D4D5",
"]%	c #D1D7DC",
"^%	c #B2C3D2",
"/%	c #A4B7C8",
"(%	c #8895A7",
"_%	c #7C8090",
":%	c #89979E",
"<%	c #82B6A4",
"[%	c #8DC3AF",
"}%	c #84C3AA",
"|%	c #72C2A2",
"1%	c #90C7B1",
"2%	c #9CB6AF",
"3%	c #858793",
"4%	c #8C92A1",
"5%	c #A0B0C2",
"6%	c #B7C8D8",
"7%	c #D2DCE6",
"8%	c #E5E9EE",
"9%	c #ADB0B2",
"0%	c #707372",
"a%	c #555755",
"b%	c #565857",
"c%	c #656767",
"d%	c #BABDBF",
"e%	c #E0E5E9",
"f%	c #DBE3EB",
"g%	c #B7C7D7",
"h%	c #A8B9CC",
"i%	c #929AAA",
"j%	c #8E8B98",
"k%	c #9AA5A8",
"l%	c #80C1A7",
"m%	c #7CC7A9",
"n%	c #77C4A5",
"o%	c #5EB992",
"p%	c #7BBAA3",
"q%	c #8EA9A4",
"r%	c #A5ABB4",
"s%	c #959DAC",
"t%	c #96A1B1",
"u%	c #B4C0CE",
"v%	c #CFDBE6",
"w%	c #C1C9CF",
"x%	c #B6B9BA",
"y%	c #B3B4B3",
"z%	c #B3B4B4",
"A%	c #B5B6B7",
"B%	c #C4CDD4",
"C%	c #CDD9E5",
"D%	c #C0CCD9",
"E%	c #97A2B3",
"F%	c #8C97A8",
"G%	c #8EA2A6",
"H%	c #96B0AB",
"I%	c #98B9AF",
"J%	c #7CC1A6",
"K%	c #61BB95",
"L%	c #7DC0A6",
"M%	c #ADC0BC",
"N%	c #8E949B",
"O%	c #787E8E",
"P%	c #96A3B5",
"Q%	c #B5C8DA",
"R%	c #D0DBE5",
"S%	c #E4E7EB",
"T%	c #EDEDEE",
"U%	c #E9EBED",
"V%	c #CDD9E4",
"W%	c #B6C9DB",
"X%	c #A2B2C4",
"Y%	c #7D8191",
"Z%	c #7A7B89",
"`%	c #7EAB9D",
" &	c #7DC5A8",
".&	c #76C1A4",
"+&	c #74C2A2",
"@&	c #7EC0A6",
"#&	c #85A8A0",
"$&	c #8F9AA2",
"%&	c #98A1B1",
"&&	c #9EADBF",
"*&	c #B1BAC6",
"=&	c #C2C4CB",
"-&	c #C9C9CE",
";&	c #C6C7CD",
">&	c #B0B9C6",
",&	c #9FAEBF",
"'&	c #99A5B6",
")&	c #9299A3",
"!&	c #969BA4",
"~&	c #84B3A4",
"{&	c #71C2A2",
"]&	c #7DBEA6",
"^&	c #9AB8B1",
"/&	c #A3A6B1",
"(&	c #7C8192",
"_&	c #7C7F8E",
":&	c #848591",
"<&	c #888792",
"[&	c #868692",
"}&	c #7D808F",
"|&	c #7A7E90",
"1&	c #82949A",
"2&	c #8AB8A9",
"3&	c #86BAA8",
"4&	c #79BDA3",
"5&	c #74C3A4",
"6&	c #89C2AC",
"7&	c #91B5A9",
"8&	c #719D91",
"9&	c #739B91",
"0&	c #769C94",
"a&	c #729A91",
"b&	c #6A988C",
"c&	c #669689",
"d&	c #669688",
"e&	c #6B988B",
"f&	c #72A796",
"g&	c #7AC2A6",
"h&	c #77C5A6",
"i&	c #5AB78F",
"j&	c #5CB892",
"k&	c #88C7B0",
"l&	c #72C0A1",
"m&	c #71C0A0",
"n&	c #54B48B",
"o&	c #6EBF9D",
"p&	c #7CC4A9",
"q&	c #67BD98",
"r&	c #3FAD7F",
"s&	c #4FB288",
"t&	c #57B88F",
"u&	c #65BC96",
"                . + @ # @ + .                       . + @ # @ +                               $ % & * = -     ; > , ' ;         ",
"                - ) ! ~ { ) -                       - ] { ~ ! ^ -                             / ( _ : < +   [ } | 1 2 3 4       ",
"                $ * 5 6 7 & $         4 8 9 0 ;     $ # a b ~ * -                             c ! d e f /   [ ' g h i , j 8 9 k ",
"                - ] l a m @ -         n o p q r ;   $ @ s a { ) -                             / t u 5 v +   [ w 2 x y z A o p B ",
"                . + @ # @ + .       [ C D E F G H     + @ # @ +                               $ % & * = -     ; w I ' 8 J K L M ",
"                  . N $ $ .         [ O P Q R q w S w } 4 - - .                                 - $ $ -         [ 4 [ 4 J T U U ",
"                                      A V W X J A Y y Z I ;                                                           `  ...W W ",
"-                                     4 0 r +.8 } @.#.$.%.j           - + + $ .                               - &.+ + - 4 *.r r ",
"/ -                                             =.-.i ;.Y j         $ % >.>.] &.                            . ,.& v './ -       ",
"@ +                                             4 w ).).n ;         + v a !.~.=                             - ) m !._ & $       ",
"* / / % % + -                         - / % % +   [ ; n r O +.;     / {.].e ! % + % % / -                   - @ _ b a '.,./ % % ",
"% % >.{ ! * &.                        / v l ^.@ $   /.C (.P p _.4   + & { l >.% @ ^.l v /                   - % f m :.] % <.{ { ",
"&.^ { e ].( +                       . ^ m d !.v +   [.2 }.|.1.2.;   - + % ^ / / v !.d m ^ .                   $ = ^ % + ) s e e ",
". c :.!.a v +                       . % { !.7 < +   ; 2.3.M 4.5./.      . .   + < 7 !.{ % .                       .   - % { !.!.",
"  + @ v >.% $                         + * v >.% -   4 A 6.7.8.*.[             - % >.v * +                               + * v v ",
"  . $ + + $           ` ; =.=.; [     - $ + + -       4 H 9 A } =.; [           - + + $ -           4 S =.S 4           - &.+ + ",
"                      ; ' | | I ;                         ; +.| | +.;                             [ n 9.@.0.n [                 ",
"                      j %.a.b.| =.                        c.d.$.$.-.c.                            4 z e.#.1 z [                 ",
"                      j f.g.a.| =.                        =.-.a.a.d.=.                            4 z g h.g ' [                 ",
"                      i.w f.%.' ;         - + .     j.k.l.m.n.o.o.p.q.r.                          [ 8 Y %.Y S s.                ",
"[                 - + / N i.j ; `         . $ - t.u.v.w.x.y.z.A.A.B.C.D.E.F.$   -             - + / + s.j ; [                   ",
"8 4             - = >.G.v = -             .   - H.I.J.K.L.M.M.N.N.N.O.P.Q.R.S.T.$             + * f t @ $                       ",
"z ; [ /./.[     - * _ e _ * $             . U.V.W.X.Y.Z.`. +.+++@+@+#+$+%+&+*+=+-+[ /.4       = :.].!.{./                       ",
"z n +.-.;+*.4   - * _ e 5 * $         -+$ + >+,+'+)+!+~+{+]+^+/+(+(+_+:+<+[+}+|+1+Y 5.+.;     = :.2+3+t /                       ",
"n 4+5+6+4.8.H   - = ( :.( c -         . 7+H.8+9+0+a+b+c+d+e+f+g+h+i+j+k+l+m+n+o+p+q+i | w     + & ~.G.r+&.                      ",
"/.Y K |.E B  .4 ; s+t+u+/ $           -+v+w+x+y+z+A+B+C+D+E+F+G+H+I+J+K+L+M+N+O+P+Q+R+e.S+/.; i.. / = + .                       ",
"  +.(.}.1.T+ .w 0.0.w 4             k.U+V+W+X+Y+Z+`+ @.@+@@@#@$@%@&@%@*@=@-@;@>@,@'@)@!@+.n ).0.I j                             ",
"  ; C 6.8. .} -.g.~@%.S             {@]@^@/@(@_@:@<@[@}@|@1@2@3@4@5@&@J+6@7@8@9@0@a@b@c@j z e.$.Z w [           . . .           ",
"$   ; [.[.4 =.| h.b.-.S             d@e@f@g@h@i@j@k@l@m@n@o@p@q@r@s@5@&@t@u@v@w@x@y@z@A@B@, i #.C@3 [         $ c ) % + .       ",
"% $         ; S+@.@.+.i.      . .   d@D@E@F@G@H@j@I@j@J@K@L@M@N@O@P@Q@&@&@R@S@T@U@V@W@X@T.} -.2 0.S         - % G.Y@^.) -       ",
"* ,.$ + + -   ; } w w 0 S 4   . .   d@Z@`@ #.#+#@###$#%#&#*#=#-#;#>#,#Q@'#)#!#.+~#{#]#^#F.k.=.} A 0 H ;     - @ _ b a '.+ $ + + ",
"@ = ) >./#% -   4 *.o q 8.*.[       d@(#_#:#<#[#}#|#1#2#3#4#5#6#7#8#9#0#a#b#c#d#e#f#g#h#i#.   8 j#G T+r ;   - ) m !._ & = @ >.>.",
"/ % :.k#7 >.+   ; 5.4.l#m#-.;       n#o#p#q#r#s#t#q@u#v#w#x#y#z#A#B#C#D#E#F#G#H#I#J#K#L#M#N   +.(.N#}.7.0     + * >.# = ) { k#k#",
"- % { d ].( ,.  ; 8.O#P#Q#8.;     -+R#S#T#U#V#W#X#Y#Z#`# $.$+$@$#$$$%$&$*$=$-$;$>$,$'$)$/#N   !$~$Q {$]$ .    - $ + &.$ ) s d e ",
"  / v s { & &.  4 C X m#X C 4     -+R#^$/$($_$:$<$[$}$|$1$2$3$4$5$6$7$8$9$0$a$b$c$d$e$L#f$.   0 V P K 8.H               = g$s s ",
"  - / ) ^ + -     ; _.;+C n ; [   -+h$i$j$k$l$m$n$o$p$q$r$s$t$u$v$w$q$x$y$z$A$B$C$D$E$F$/ .   4 A J J  .j 4             $ = ) ) ",
"      . .           [ ; n I I n 4 $ G$H$I$J$K$L$M$N$O$P$Q$R$S$S$T$U$V$W$X$Y$L$Z$`$ %.%+%$         4 8 ' , ' ;               . . ",
"                      j Y e.;.%.S . u+@%#%$%%%&%*%=%-%;%>%,%'%)%!%~%{%]%^%/%(%_%:%<%[%}%.         [ 3 Z i Z > [                 ",
"                      S %.b.#.@.=.  - |%1%2%3%4%5%6%7%8%9%0%a%b%c%d%e%f%g%h%i%j%k%l%m%n%          4 I ;.h e.z [                 ",
"                      ; ).o%C@0.S       &.p%q%r%s%t%u%v%w%x%y%z%A%B%C%D%E%F%G%H%I%J%f$/           [ w @.g K%w [                 ",
"                    - . i.w 3 8 4       $ $ L%M%N%O%P%Q%R%S%T%T%U%V%W%X%Y%Z%`% &.&+ + -         - - s.n 3 } ; [ [ [ [           ",
"                  + ) * ^ $   s.          -++&@&#&$&%&&&*&=&-&-&;&>&,&'&)&!&~&{&$ - .         $ c * @ ,.. [   ; w z > ;         ",
"                - ) { 5 { ] -               -+-+]&^&/&(&_&:&<&<&[&}&|&1&2&3&4&  -             / ( _ _ >.+   [ } K%e.Z ' 4       ",
"                $ * 5 6 7 & $         4 H  .0 4 5&6&7&8&9&0&a&b&c&d&e&f&g&h&|%                c ! d e f /   [ ' g h i , j H  . .",
"                - ) { 7 l @ -         n 8.i&j&r 4   $ @ s k&l ] l&m&m&. . = +                 / ( 5 _ >.+   [ } @.;.Z '  .8.i&p ",
"                . + ] & @ + .       [ C n&E Q#6.; $ . ,.r+/#* = $ . . -+                      $ % * * = -     ; w I 3 8 J K E E ",
"                  . - $ - .         [ O K U N#T+i.m&o&s+$ / ,.N .     . .                       - $ $ -         [ 4 [ 4 J P U U ",
"                                      *.T+~$(.Y =.I 2 8.' [ .                                                         ` A V ~$~$",
"-                                     4 0 !$+.8 } @.#.b.%.j           $ + + $ .                               - &.+ + - 4 0 !$!$",
"/ -                                             =.-.i e.Y ;         $ % >.v @ +                             . ,.& p&/#= -       ",
"@ +   . .                                 . .   4 w q&, n ; `       + v k#!.:.=   . .                       - ] s ]._ & $   . . ",
"* / / ^ % + -                         $ / ^ % +   [ ; n C J +.;     / {.].e ! % + % ^ / $                   - @ _ b a '.,./ ^ ^ ",
"% % v l { * &.                        / ( m ! r+$   /.C X T (.r 4   &.* ! { < % * ! m ( /                   - c t l ~.) % ( m l ",
"&.^ { d ].( +                       . ^ m d !.v +   [.2 }.r&1.2.;   - + % % ,./ v !.d m ^ .                   $ = % = + ) s d e ",
"  c :.!.a v +                       . % ! !.u /#+   ; 2.s&M 4.;+/.            + /#u !.! % .                           - % { !.!.",
"  + @ v >.% $                         + r+v /#c -   4 A 6.j&8.0 [             - c /#v r++                               + * v v ",
"  . $ + + -           [ ; =.=.; [     . $ + + -       4 H 0 A } n ; [           - + + $ .           4 S n S 4           . $ + + ",
"                      ; ' | @.S+;                         ; +.K%K%I ;                             [ n %.@.9.n [                 ",
"                      j %.$.h.| =.                        =.d.b.b.d.=.                            4 z e.#.1 z [                 ",
"                      j 0.~@t&| =.                        S %.t&t&%.S                             4 ' g b.C@' [                 ",
"                      4 w 0.u&' ;                         i.w 0.0.w i.                            [ S ).%.).S s.                ",
"[                 - ,./ t+i.j i.                      $ / / $ i.j i.[ i.S =.; [               - + / ,.B@j ; [                   ",
"=.4             - = v ~.v c -                       - % ( ~.v = -   4 w %.d.I ;               + & G.G.@ &.                      ",
"z ;             - * _ e ~ * $                       $ & 5 e : @ -   j 0.t&b.K%=.              = :.].!.t /                       "};
