/* XPM */
static char * floor_xpm[] = {
"64 64 188 2",
"  	c #6FC0A0",
". 	c #70C0A0",
"+ 	c #72C1A2",
"@ 	c #77C3A5",
"# 	c #79C3A7",
"$ 	c #71C1A1",
"% 	c #75C2A4",
"& 	c #79C3A6",
"* 	c #78C3A6",
"= 	c #74C2A3",
"- 	c #70C0A1",
"; 	c #6DBF9E",
"> 	c #6ABE9A",
", 	c #68BD98",
"' 	c #69BD9A",
") 	c #76C2A5",
"! 	c #81C6AB",
"~ 	c #86C7AF",
"{ 	c #82C6AC",
"] 	c #77C2A5",
"^ 	c #76C2A4",
"/ 	c #73C1A3",
"( 	c #7DC4A9",
"_ 	c #86C7AE",
": 	c #85C7AE",
"< 	c #7BC4A7",
"[ 	c #6EC09F",
"} 	c #6BBE9B",
"| 	c #62BB95",
"1 	c #5CB991",
"2 	c #60BA94",
"3 	c #6ABD9A",
"4 	c #6EBF9F",
"5 	c #87C7AF",
"6 	c #8EC9B3",
"7 	c #88C8AF",
"8 	c #6CBE9D",
"9 	c #69BE9B",
"0 	c #6ABE9C",
"a 	c #88C8B0",
"b 	c #8DC9B3",
"c 	c #74C2A4",
"d 	c #8DC9B2",
"e 	c #8CC9B2",
"f 	c #7EC5AA",
"g 	c #5CB992",
"h 	c #53B78D",
"i 	c #59B890",
"j 	c #6DBF9D",
"k 	c #69BE9C",
"l 	c #83C6AC",
"m 	c #83C6AD",
"n 	c #6BBE9C",
"o 	c #62BA95",
"p 	c #5AB790",
"q 	c #5DB892",
"r 	c #67BC99",
"s 	c #84C6AD",
"t 	c #7EC5A9",
"u 	c #87C8AF",
"v 	c #7CC4A8",
"w 	c #6ABE9B",
"x 	c #5AB890",
"y 	c #5EBA93",
"z 	c #69BD99",
"A 	c #6ABD9B",
"B 	c #5BB790",
"C 	c #66BC99",
"D 	c #54B48C",
"E 	c #44AF81",
"F 	c #49B084",
"G 	c #5EB993",
"H 	c #6BBE9D",
"I 	c #68BD99",
"J 	c #65BB98",
"K 	c #53B48B",
"L 	c #45AF81",
"M 	c #45AF82",
"N 	c #71C0A1",
"O 	c #65BC98",
"P 	c #52B48A",
"Q 	c #41AE80",
"R 	c #47B083",
"S 	c #6CBF9D",
"T 	c #51B38A",
"U 	c #42AE80",
"V 	c #5EB893",
"W 	c #55B58C",
"X 	c #58B68E",
"Y 	c #66BC98",
"Z 	c #5FBA93",
"` 	c #6EC0A0",
" .	c #69BD9B",
"..	c #5EB892",
"+.	c #68BD9A",
"@.	c #61BA94",
"#.	c #54B78E",
"$.	c #56B78F",
"%.	c #64BB96",
"&.	c #71C1A2",
"*.	c #6ABD9C",
"=.	c #6CBE9C",
"-.	c #63BB96",
";.	c #5AB891",
">.	c #7BC4A8",
",.	c #73C1A2",
"'.	c #7AC3A7",
").	c #67BC98",
"!.	c #8AC8B1",
"~.	c #80C5AA",
"{.	c #7DC5A9",
"].	c #8BC9B1",
"^.	c #81C5AB",
"/.	c #6DBF9F",
"(.	c #59B68F",
"_.	c #67BC9A",
":.	c #80C5AB",
"<.	c #7DC4A8",
"[.	c #6CBF9E",
"}.	c #4AB185",
"|.	c #40AD7F",
"1.	c #4DB287",
"2.	c #62BA96",
"3.	c #4EB287",
"4.	c #51B389",
"5.	c #63BB97",
"6.	c #60B994",
"7.	c #5CB891",
"8.	c #61BA95",
"9.	c #64BC97",
"0.	c #65BC97",
"a.	c #57B78F",
"b.	c #56B78E",
"c.	c #63BB95",
"d.	c #5BB991",
"e.	c #64BC96",
"f.	c #58B88F",
"g.	c #57B88F",
"h.	c #55B78E",
"i.	c #6EBF9E",
"j.	c #6FC09F",
"k.	c #7FC5AA",
"l.	c #64BB97",
"m.	c #77C3A6",
"n.	c #61BB95",
"o.	c #68BC9A",
"p.	c #8BC9B2",
"q.	c #8AC9B1",
"r.	c #5CB791",
"s.	c #4EB288",
"t.	c #78C3A5",
"u.	c #6FBF9E",
"v.	c #72C1A1",
"w.	c #74C1A3",
"x.	c #5CB892",
"y.	c #46AF82",
"z.	c #52B38A",
"A.	c #5FB993",
"B.	c #57B68E",
"C.	c #58B890",
"D.	c #67BD98",
"E.	c #5DB992",
"F.	c #67BD99",
"G.	c #84C7AD",
"H.	c #7AC4A7",
"I.	c #89C8B0",
"J.	c #66BB98",
"K.	c #46AF83",
"L.	c #50B389",
"M.	c #48B084",
"N.	c #4CB186",
"O.	c #3FAD7E",
"P.	c #4BB186",
"Q.	c #67BD9A",
"R.	c #56B58D",
"S.	c #43AE81",
"T.	c #59B78F",
"U.	c #7EC4A9",
"V.	c #5AB991",
"W.	c #5EB992",
"X.	c #81C6AC",
"Y.	c #5AB78F",
"Z.	c #54B48B",
"`.	c #7CC4A9",
" +	c #3FAD7F",
".+	c #4FB288",
"++	c #65BC96",
"@+	c #70C09F",
"                . + @ # @ + .                       . + @ # @ +                               $ % & * = -     ; > , ' ;         ",
"                - ) ! ~ { ) -                       - ] { ~ ! ^ -                             / ( _ : < +   [ } | 1 2 3 4       ",
"                $ * 5 6 7 & $         4 8 9 0 ;     $ # a b ~ * -                             c ! d e f /   [ ' g h i , j 8 9 k ",
"                - ] l a m @ -         n o p q r ;   $ @ s a { ) -                             / t u 5 v +   [ w 2 x y z A o p B ",
"                . + @ # @ + .       [ C D E F G H     + @ # @ +                               $ % & * = -     ; w I ' 8 J K L M ",
"                  . N $ $ .         [ O P Q R q w S w } 4 - - .                                 - $ $ -         [ 4 [ 4 J T U U ",
"                                      A V W X J A Y y Z I ;                                                           `  ...W W ",
"-                                     4 0 r +.8 } @.#.$.%.j           - + + $ .                               - &.+ + - 4 *.r r ",
"/ -                                             =.-.i ;.Y j         $ % >.>.] &.                            . ,.& v './ -       ",
"@ +                                             4 w ).).n ;         + v a !.~.=                             - ) m !._ & $       ",
"* / / % % + -                         - / % % +   [ ; n r O +.;     / {.].e ! % + % % / -                   - @ _ b a '.,./ % % ",
"% % >.{ ! * &.                        / v l ^.@ $   /.C (.P p _.4   + & { l >.% @ ^.l v /                   - % f m :.] % <.{ { ",
"&.^ { e ].( +                       . ^ m d !.v +   [.2 }.|.1.2.;   - + % ^ / / v !.d m ^ .                   $ = ^ % + ) s e e ",
". c :.!.a v +                       . % { !.7 < +   ; 2.3.M 4.5./.      . .   + < 7 !.{ % .                       .   - % { !.!.",
"  + @ v >.% $                         + * v >.% -   4 A 6.7.8.*.[             - % >.v * +                               + * v v ",
"  . $ + + $           ` ; =.=.; [     - $ + + -       4 H 9 A } =.; [           - + + $ -           4 S =.S 4           - &.+ + ",
"                      ; ' | | I ;                         ; +.| | +.;                             [ n 9.@.0.n [                 ",
"                      j %.a.b.| =.                        =.c.$.$.c.=.                            4 z d.#.1 z [                 ",
"                      j e.f.a.| =.                        S -.g.g.-.S                             4 z g h.g ' [                 ",
"                      i.w e.%.' ;                         ; ' %.%.' ;                             [ 8 Y %.Y S j.                ",
"[                 - + / N i.j ; `                     $ ,./ N i.j i.[ i.S S ; [               - + / + j.j ; [                   ",
"8 4             - = >.k.v = -                       - = v k.>.= -   4 w %.-.+.;               + * f t @ $                       ",
"z ; [ /./.[     - * _ e _ * $                       $ & 5 e : @ -   j 0.f.$.| n [ 4 /.4       = :.].!.{./                       ",
"z n +.-.l.*.4   - * _ e 5 * $                       $ & 5 e _ m.-   j 0.g.b.n.} n l.-.o.;     = :.p.q.t /                       ",
"n o.r.s.4.8.H   - = ( :.( c -                       - % ( :.v = -   i.' -.| I A o P 3.p +.`   + & ~.k.t.&.                      ",
"/.Y K |.E B  .4 ; u.v.w./ $                           $ / = / $       ; =.=.; 0 x.y.|.z.J ; ; i.. / = + .                       ",
"  +.(.}.1.A. .w 0.0.w 4                                                       H 6.3.F B.C n ).0.I j                             ",
"  ; C 6.8. .} -.f.C.%.S                                                 . . . 4 A 8.6.Y n I d.$.Z w [           . . .           ",
"$   ; [.[.4 =.| h.b.-.S                                             - + ^ ) / - 4 [.[./.; D.i #.E.3 [         $ c ) % + .       ",
"% $         ; F.@.@.+.i.                                            + & l s v /         [ w -.2 0.S         - % k.G.^.) -       ",
"* ,.$ + + -   ; } w w 0 S 4           . $ + &.-                     / t ].e ! % - &.+ $   i.=.} A 0 H ;     - @ _ b a '.+ $ + + ",
"@ = ) >.H.% -   4 *.o q 8.*.[         + @ >.'.= -                   + v 7 I.k.% c '.>.@ +     8 J.G A.r ;   - ) m !._ & = @ >.>.",
"/ % :.I.7 >.+   ; 5.4.K.L.-.;       . % ! !.5 H.+                   $ % H.>.) = H.5 !.! % .   +.(.M.}.7.0     + * >.# = ) { I.I.",
"- % { d ].( ,.  ; 8.N.O.P.8.;       . ^ m b !.v +                     - + + $ ,.v !.b m ^ .   Q.R.Q S.T. .    - $ + &.$ ) s d e ",
"  / v s { & &.  4 C X L.X C 4         = ( s { * $                             $ * { s ( =     0 V P K 8.H               = U.s s ",
"  - / ) ^ + -     ; _.l.C n ; [       $ = ) % + .           [ i.i.[           . + % ) = $     4 A J J  .j 4             $ = ) ) ",
"      . .           [ ; n I I n 4         . .             4 n I I n 4             . .             4 8 ' , ' ;               . . ",
"                      j Y d.;.%.S                         j 0.V.V.0.j                             [ 3 Z i Z > [                 ",
"                      S %.b.#.@.=.                        =.| h.h.| =.                            4 I ;.h d.z [                 ",
"                      ; ).W.E.0.S                         j Y E.E.Y j                             [ w @.g n.w [                 ",
"                    - . i.w 3 8 4                     . - . ; > 3 S [                           - - j.n 3 } ; [ [ [ [           ",
"                  + ) * ^ $   j.                    . + ] * ^ $ j.                            $ c * @ ,.. [   ; w z > ;         ",
"                - ) { 5 { ] -                       N @ l 5 X.) -                             / ( _ _ >.+   [ } n.d.Z ' 4       ",
"                $ * 5 6 7 & $         4 H  .0 ;     $ # a 6 5 * -                             c ! d e f /   [ ' g h i , j H  . .",
"                - ) { 7 l @ -         n 8.T.7.r ;   $ @ m 7 { ) -                             / ( 5 _ >.+   [ } @.;.Z '  .8.Y.p ",
"                . + ] & @ + .       [ C Z.E F V n     v.] & ) +                               $ % * * = -     ; w I 3 8 J K E E ",
"                  . - $ - .         [ O K U R q w S > } i.. - .                                 - $ $ -         [ 4 [ 4 J P U U ",
"                                      *.A.R.(.J A 0.E.y F.;                                                           ` A V R.R.",
"-                                     4 0 Q.+.8 } @.#.b.%.j           $ + + $ .                               - &.+ + - 4 0 Q.Q.",
"/ -                                             =.-.i d.Y ;         $ % >.v @ +                             . ,.& `.H.= -       ",
"@ +   . .                                 . .   4 w D., n ; `       + v I.!.:.=   . .                       - ] s ]._ & $   . . ",
"* / / ^ % + -                         $ / ^ % +   [ ; n C J +.;     / {.].e ! % + % ^ / $                   - @ _ b a '.,./ ^ ^ ",
"% % v l { * &.                        / ( m ! t.$   /.C X T (.r 4   &.* ! { < % * ! m ( /                   - c t l ~.) % ( m l ",
"&.^ { d ].( +                       . ^ m d !.v +   [.2 }. +1.2.;   - + % % ,./ v !.d m ^ .                   $ = % = + ) s d e ",
"  c :.!.a v +                       . % ! !.u H.+   ; 2..+M 4.l./.            + H.u !.! % .                           - % { !.!.",
"  + @ v >.% $                         + t.v H.c -   4 A 6.x.8.0 [             - c H.v t.+                               + * v v ",
"  . $ + + -           [ ; =.=.; [     . $ + + -       4 H 0 A } n ; [           - + + $ .           4 S n S 4           . $ + + ",
"                      ; ' | @.F.;                         ; +.n.n.I ;                             [ n %.@.9.n [                 ",
"                      j %.$.h.| =.                        =.c.b.b.c.=.                            4 z d.#.1 z [                 ",
"                      j 0.C.g.| =.                        S %.g.g.%.S                             4 ' g b.E.' [                 ",
"                      4 w 0.++' ;                         i.w 0.0.w i.                            [ S ).%.).S j.                ",
"[                 - ,./ v.i.j i.                      $ / / $ i.j i.[ i.S =.; [               - + / ,.@+j ; [                   ",
"=.4             - = v ~.v c -                       - % ( ~.v = -   4 w %.c.I ;               + & k.k.@ &.                      ",
"z ;             - * _ e ~ * $                       $ & 5 e : @ -   j 0.g.b.n.=.              = :.].!.t /                       "};
